# xmcd
#
# Track frame offsets:
#	150
#	13390
#	27135
#	39982
#	52872
#	64882
#	74122
#	85487
#	95857
#	109600
#	123200
#	134525
#	145325
#	155490
#
# Disc length: 2246 seconds
#
# Revision: 3
# Processed by: cddbd v1.5.2PL0 Copyright (c) Steve Scherf et al.
# Submitted via: audiograbber 1.83.01
#
DISCID=cb08c40e
DTITLE=Faye Adams - The Herald Recordings
DYEAR=1993
DGENRE=Oldies
TTITLE0=Shake A Hand
TTITLE1=Hurts Me To My Heart
TTITLE2=I'll Be True
TTITLE3=Everyday
TTITLE4=Anytime, Anyplace, Anywhere
TTITLE5=You Ain't Been True To Me
TTITLE6=Angels Tell Me
TTITLE7=Don't Forget To Smile
TTITLE8=Welcome Home
TTITLE9=Anything For A Friend
TTITLE10=Takin' You Back
TTITLE11=The Hammer (Keeps A Knockin')
TTITLE12=Say A Prayer
TTITLE13=Tag Along
EXTD=
EXTT0=
EXTT1=
EXTT2=
EXTT3=
EXTT4=
EXTT5=
EXTT6=
EXTT7=
EXTT8=
EXTT9=
EXTT10=
EXTT11=
EXTT12=
EXTT13=
PLAYORDER=
